<svg width="21" height="24" viewBox="0 0 21 24" fill="none" xmlns="http://www.w3.org/2000/svg">
<path d="M11.0254 0.0199997C12.3354 0 13.6354 0.00999987 14.9354 0C15.0154 1.52998 15.5654 3.08996 16.6854 4.16995C17.8053 5.27993 19.3853 5.78993 20.9253 5.95993V9.98987C19.4853 9.93987 18.0353 9.63988 16.7254 9.01989C16.1554 8.75989 15.6254 8.42989 15.1054 8.0899C15.0954 11.0099 15.1154 13.9298 15.0854 16.8398C15.0054 18.2398 14.5454 19.6298 13.7354 20.7797C12.4254 22.6997 10.1554 23.9497 7.82547 23.9897C6.39549 24.0697 4.96551 23.6797 3.74552 22.9597C1.72555 21.7697 0.305568 19.5898 0.0955703 17.2498C0.0755706 16.7498 0.0655707 16.2498 0.0855704 15.7598C0.265568 13.8598 1.20556 12.0398 2.66554 10.7999C4.32552 9.35988 6.64549 8.66989 8.81546 9.07989C8.83546 10.5599 8.77546 12.0398 8.77546 13.5198C7.78547 13.1998 6.62549 13.2898 5.7555 13.8898C5.12551 14.2998 4.64551 14.9298 4.39552 15.6398C4.18552 16.1498 4.24552 16.7098 4.25552 17.2498C4.49552 18.8898 6.0755 20.2697 7.75547 20.1197C8.87546 20.1097 9.94545 19.4598 10.5254 18.5098C10.7154 18.1798 10.9254 17.8398 10.9354 17.4498C11.0354 15.6598 10.9954 13.8798 11.0054 12.0898C11.0154 8.0599 10.9954 4.03995 11.0254 0.0199997Z" fill="white"/>
</svg>
