<svg width="25" height="24" viewBox="0 0 25 24" fill="none" xmlns="http://www.w3.org/2000/svg">
<path fill-rule="evenodd" clip-rule="evenodd" d="M7.12733 0.072C8.40734 0.0133309 8.81534 0 12.0747 0C15.3346 0 15.742 0.0139963 17.0213 0.072C18.2993 0.130004 19.172 0.333338 19.9353 0.63C20.7359 0.931429 21.4612 1.40372 22.0606 2.014C22.671 2.61338 23.1434 3.33868 23.4447 4.13933C23.7413 4.90267 23.944 5.77534 24.0027 7.05266C24.0614 8.33267 24.0747 8.74067 24.0747 12C24.0747 15.2593 24.0607 15.6673 24.0027 16.9474C23.9446 18.2246 23.7413 19.0973 23.4447 19.8607C23.138 20.6494 22.7273 21.3193 22.0606 21.986C21.4613 22.5963 20.7359 23.0687 19.9353 23.37C19.172 23.6666 18.2993 23.8693 17.0221 23.928C15.742 23.9867 15.334 24 12.0747 24C8.81534 24 8.40734 23.986 7.12733 23.928C5.85001 23.87 4.97733 23.6666 4.214 23.37C3.42533 23.0633 2.75534 22.6526 2.08867 21.986C1.47828 21.3866 1.00596 20.6613 0.704669 19.8607C0.408007 19.0973 0.205338 18.2246 0.146669 16.9474C0.0879998 15.6673 0.0746689 15.26 0.0746689 12C0.0746689 8.74 0.0886652 8.33267 0.146669 7.05334C0.204673 5.77534 0.408007 4.90267 0.704669 4.13933C1.0061 3.33874 1.47839 2.61347 2.08867 2.014C2.68804 1.40361 3.41334 0.931287 4.214 0.63C4.97733 0.333338 5.85001 0.130669 7.12733 0.072ZM16.924 2.232C15.6586 2.17466 15.2787 2.162 12.0747 2.162C8.87067 2.162 8.49067 2.17466 7.22534 2.232C6.05534 2.28533 5.42 2.48066 4.99733 2.64533C4.43733 2.86267 4.03733 3.12266 3.61733 3.54266C3.19801 3.96266 2.93733 4.36267 2.72 4.92266C2.55533 5.34534 2.36 5.98067 2.30667 7.15067C2.24933 8.416 2.23667 8.796 2.23667 12C2.23667 15.204 2.24933 15.584 2.30667 16.8493C2.36 18.0193 2.55533 18.6547 2.72 19.0774C2.91224 19.5986 3.21888 20.0701 3.61733 20.4574C4.00449 20.8558 4.47606 21.1624 4.99733 21.3547C5.42 21.5194 6.05534 21.7147 7.22534 21.768C8.49067 21.8254 8.87 21.838 12.0747 21.838C15.2793 21.838 15.6586 21.8254 16.924 21.768C18.094 21.7147 18.7293 21.5194 19.1521 21.3547C19.712 21.1373 20.1121 20.8774 20.5321 20.4574C20.9305 20.0702 21.2371 19.5986 21.4293 19.0774C21.5941 18.6547 21.7893 18.0193 21.8427 16.8493C21.9001 15.584 21.9127 15.204 21.9127 12C21.9127 8.796 21.9001 8.416 21.8427 7.15067C21.7893 5.98067 21.5941 5.34534 21.4293 4.92266C21.212 4.36267 20.9521 3.96266 20.5321 3.54266C20.1121 3.12334 19.712 2.86267 19.1521 2.64533C18.7293 2.48066 18.094 2.28533 16.924 2.232ZM10.5425 15.6992C11.0283 15.9004 11.5489 16.004 12.0747 16.004C13.1367 16.004 14.155 15.5821 14.9059 14.8312C15.6569 14.0804 16.0787 13.0619 16.0787 12C16.0787 10.9381 15.6569 9.91964 14.9059 9.16874C14.155 8.41785 13.1367 7.99599 12.0747 7.99599C11.5489 7.99599 11.0283 8.09956 10.5425 8.30078C10.0566 8.502 9.61525 8.79693 9.24344 9.16874C8.87164 9.54055 8.5767 9.98193 8.37548 10.4677C8.17427 10.9535 8.07071 11.4742 8.07071 12C8.07071 12.5258 8.17427 13.0465 8.37548 13.5323C8.5767 14.0181 8.87164 14.4595 9.24344 14.8312C9.61525 15.203 10.0566 15.498 10.5425 15.6992ZM7.71327 7.63856C8.86999 6.48183 10.4389 5.83199 12.0747 5.83199C13.7106 5.83199 15.2794 6.48183 16.4361 7.63856C17.5928 8.79528 18.2427 10.3642 18.2427 12C18.2427 13.6358 17.5928 15.2047 16.4361 16.3615C15.2794 17.5181 13.7106 18.168 12.0747 18.168C10.4389 18.168 8.86999 17.5181 7.71327 16.3615C6.55655 15.2047 5.9067 13.6358 5.9067 12C5.9067 10.3642 6.55655 8.79528 7.71327 7.63856ZM19.6103 6.75096C19.8837 6.47752 20.0373 6.10668 20.0373 5.72C20.0373 5.3333 19.8837 4.96246 19.6103 4.68903C19.3369 4.41561 18.9661 4.262 18.5793 4.262C18.1927 4.262 17.8218 4.41561 17.5484 4.68903C17.2749 4.96246 17.1213 5.3333 17.1213 5.72C17.1213 6.10668 17.2749 6.47752 17.5484 6.75096C17.8218 7.02439 18.1927 7.178 18.5793 7.178C18.9661 7.178 19.3369 7.02439 19.6103 6.75096Z" fill="white"/>
</svg>
