<svg width="24" height="24" viewBox="0 0 24 24" fill="none" xmlns="http://www.w3.org/2000/svg">
<path d="M15.15 8.4C14.3836 8.39737 13.6241 8.54589 12.9151 8.83707C12.2061 9.12826 11.5615 9.55638 11.0182 10.0969C10.4748 10.6375 10.0434 11.2799 9.74856 11.9874C9.45374 12.6949 9.30131 13.4535 9.3 14.22V20.1C9.3 20.3387 9.39482 20.5676 9.56361 20.7364C9.73239 20.9052 9.96131 21 10.2 21H12.3C12.5387 21 12.7676 20.9052 12.9364 20.7364C13.1052 20.5676 13.2 20.3387 13.2 20.1V14.22C13.1998 13.9474 13.2571 13.6778 13.368 13.4288C13.479 13.1798 13.6412 12.957 13.8441 12.7749C14.0469 12.5928 14.2859 12.4555 14.5454 12.372C14.8048 12.2884 15.079 12.2605 15.35 12.29C15.836 12.3512 16.2827 12.5887 16.6052 12.9573C16.9278 13.326 17.1038 13.8002 17.1 14.29V20.1C17.1 20.3387 17.1948 20.5676 17.3636 20.7364C17.5324 20.9052 17.7613 21 18 21H20.1C20.3387 21 20.5676 20.9052 20.7364 20.7364C20.9052 20.5676 21 20.3387 21 20.1V14.22C20.9987 13.4535 20.8463 12.6949 20.5514 11.9874C20.2566 11.2799 19.8252 10.6375 19.2818 10.0969C18.7385 9.55638 18.0939 9.12826 17.3849 8.83707C16.6759 8.54589 15.9165 8.39737 15.15 8.4Z" fill="black"/>
<path d="M6.59998 9.29999H3.89998C3.40293 9.29999 2.99998 9.70293 2.99998 10.2V20.1C2.99998 20.597 3.40293 21 3.89998 21H6.59998C7.09704 21 7.49998 20.597 7.49998 20.1V10.2C7.49998 9.70293 7.09704 9.29999 6.59998 9.29999Z" fill="black"/>
<path d="M5.24998 7.5C6.49263 7.5 7.49998 6.49264 7.49998 5.25C7.49998 4.00736 6.49263 3 5.24998 3C4.00734 3 2.99998 4.00736 2.99998 5.25C2.99998 6.49264 4.00734 7.5 5.24998 7.5Z" fill="black"/>
</svg>
