<svg width="25" height="24" viewBox="0 0 25 24" fill="none" xmlns="http://www.w3.org/2000/svg">
<path d="M15.2247 8.39994C14.4582 8.39731 13.6988 8.54583 12.9898 8.83701C12.2808 9.12819 11.6362 9.55632 11.0929 10.0969C10.5495 10.6375 10.1181 11.2799 9.82325 11.9873C9.52842 12.6948 9.376 13.4535 9.37469 14.2199V20.0999C9.37469 20.3386 9.46951 20.5676 9.63829 20.7363C9.80707 20.9051 10.036 20.9999 10.2747 20.9999H12.3747C12.6134 20.9999 12.8423 20.9051 13.0111 20.7363C13.1799 20.5676 13.2747 20.3386 13.2747 20.0999V14.2199C13.2745 13.9473 13.3317 13.6778 13.4427 13.4288C13.5537 13.1798 13.7159 12.957 13.9188 12.7749C14.1216 12.5928 14.3606 12.4555 14.62 12.3719C14.8795 12.2884 15.1537 12.2604 15.4247 12.2899C15.9107 12.3512 16.3573 12.5886 16.6799 12.9572C17.0025 13.3259 17.1785 13.8001 17.1747 14.2899V20.0999C17.1747 20.3386 17.2695 20.5676 17.4383 20.7363C17.6071 20.9051 17.836 20.9999 18.0747 20.9999H20.1747C20.4134 20.9999 20.6423 20.9051 20.8111 20.7363C20.9799 20.5676 21.0747 20.3386 21.0747 20.0999V14.2199C21.0734 13.4535 20.921 12.6948 20.6261 11.9873C20.3313 11.2799 19.8999 10.6375 19.3565 10.0969C18.8132 9.55632 18.1686 9.12819 17.4596 8.83701C16.7506 8.54583 15.9911 8.39731 15.2247 8.39994Z" fill="white"/>
<path d="M6.67467 9.30005H3.97467C3.47761 9.30005 3.07467 9.70299 3.07467 10.2V20.1C3.07467 20.5971 3.47761 21 3.97467 21H6.67467C7.17173 21 7.57467 20.5971 7.57467 20.1V10.2C7.57467 9.70299 7.17173 9.30005 6.67467 9.30005Z" fill="white"/>
<path d="M5.32467 7.5C6.56731 7.5 7.57467 6.49264 7.57467 5.25C7.57467 4.00736 6.56731 3 5.32467 3C4.08203 3 3.07467 4.00736 3.07467 5.25C3.07467 6.49264 4.08203 7.5 5.32467 7.5Z" fill="white"/>
</svg>
