<svg width="26" height="24" viewBox="0 0 26 24" fill="none" xmlns="http://www.w3.org/2000/svg">
<path d="M13.0747 0.999953C9.92572 0.970621 6.8929 2.08856 4.64274 4.10808C2.39258 6.12759 1.10921 8.88344 1.07467 11.77C1.0868 14.0511 1.88733 16.2701 3.36128 18.1081C4.83523 19.9461 6.90675 21.3086 9.27831 22C9.87831 22.1 10.0965 21.77 10.0965 21.48C10.0965 21.19 10.0965 20.55 10.0965 19.65C6.75831 20.3 6.04921 18.21 6.04921 18.21C5.82699 17.5539 5.35456 16.993 4.71831 16.63C3.6274 15.97 4.80558 15.98 4.80558 15.98C5.18265 16.0262 5.54342 16.15 5.86083 16.3423C6.17823 16.5345 6.44403 16.7901 6.63831 17.09C6.97685 17.6281 7.53234 18.0228 8.18523 18.1893C8.83811 18.3557 9.53619 18.2806 10.1292 17.98C10.1902 17.4323 10.4607 16.9222 10.8929 16.54C8.23103 16.27 5.43831 15.35 5.43831 11.22C5.4145 10.1426 5.84875 9.09906 6.64921 8.30995C6.28466 7.38502 6.32771 6.36627 6.76921 5.46995C6.76921 5.46995 7.78376 5.17995 10.0419 6.56995C12.0076 6.08979 14.0762 6.08979 16.0419 6.56995C18.3329 5.17995 19.3147 5.46995 19.3147 5.46995C19.7562 6.36627 19.7992 7.38502 19.4347 8.30995C20.2537 9.0846 20.7115 10.1212 20.711 11.2C20.711 15.34 17.8965 16.25 15.2565 16.52C15.5456 16.7772 15.7689 17.09 15.9103 17.4358C16.0518 17.7816 16.1079 18.1519 16.0747 18.52V21.47C16.0747 21.47 16.2929 22.1 16.8929 21.99C19.2577 21.2944 21.3222 19.9315 22.7916 18.0961C24.261 16.2607 25.0601 14.0465 25.0747 11.77C25.0401 8.88344 23.7568 6.12759 21.5066 4.10808C19.2564 2.08856 16.2236 0.970621 13.0747 0.999953Z" fill="white"/>
</svg>
