<svg width="25" height="24" viewBox="0 0 25 24" fill="none" xmlns="http://www.w3.org/2000/svg">
<path d="M13 1.00001C9.85104 0.970682 6.81821 2.08862 4.56806 4.10814C2.3179 6.12766 1.03452 8.8835 0.999985 11.77C1.01212 14.0512 1.81265 16.2701 3.2866 18.1082C4.76055 19.9462 6.83207 21.3087 9.20362 22C9.80362 22.1 10.0218 21.77 10.0218 21.48C10.0218 21.19 10.0218 20.55 10.0218 19.65C6.68362 20.3 5.97453 18.21 5.97453 18.21C5.75231 17.5539 5.27987 16.9931 4.64362 16.63C3.55271 15.97 4.73089 15.98 4.73089 15.98C5.10797 16.0262 5.46874 16.1501 5.78614 16.3423C6.10355 16.5346 6.36935 16.7902 6.56362 17.09C6.90216 17.6281 7.45766 18.0229 8.11054 18.1894C8.76343 18.3558 9.4615 18.2806 10.0545 17.98C10.1155 17.4324 10.386 16.9223 10.8182 16.54C8.15635 16.27 5.36362 15.35 5.36362 11.22C5.33982 10.1427 5.77407 9.09912 6.57453 8.31001C6.20998 7.38508 6.25302 6.36633 6.69453 5.47001C6.69453 5.47001 7.70908 5.18001 9.96726 6.57001C11.933 6.08985 14.0016 6.08985 15.9673 6.57001C18.2582 5.18001 19.24 5.47001 19.24 5.47001C19.6815 6.36633 19.7245 7.38508 19.36 8.31001C20.179 9.08466 20.6368 10.1212 20.6363 11.2C20.6363 15.34 17.8218 16.25 15.1818 16.52C15.4709 16.7773 15.6942 17.0901 15.8356 17.4359C15.9771 17.7817 16.0332 18.1519 16 18.52V21.47C16 21.47 16.2182 22.1 16.8182 21.99C19.183 21.2944 21.2475 19.9316 22.7169 18.0962C24.1863 16.2607 24.9854 14.0466 25 11.77C24.9654 8.8835 23.6821 6.12766 21.4319 4.10814C19.1818 2.08862 16.1489 0.970682 13 1.00001Z" fill="black"/>
</svg>
