<svg width="21" height="24" viewBox="0 0 21 24" fill="none" xmlns="http://www.w3.org/2000/svg">
<path d="M10.9507 0.0199997C12.2607 0 13.5607 0.00999987 14.8607 0C14.9407 1.52998 15.4907 3.08996 16.6107 4.16995C17.7307 5.27993 19.3106 5.78993 20.8506 5.95993V9.98987C19.4106 9.93987 17.9607 9.63988 16.6507 9.01989C16.0807 8.75989 15.5507 8.42989 15.0307 8.0899C15.0207 11.0099 15.0407 13.9298 15.0107 16.8398C14.9307 18.2398 14.4707 19.6298 13.6607 20.7797C12.3507 22.6997 10.0808 23.9497 7.75079 23.9897C6.32081 24.0697 4.89083 23.6797 3.67084 22.9597C1.65087 21.7697 0.230884 19.5898 0.0208862 17.2498C0.000886423 16.7498 -0.00911344 16.2498 0.0108863 15.7598C0.190884 13.8598 1.13087 12.0398 2.59085 10.7999C4.25083 9.35988 6.5708 8.66989 8.74078 9.07989C8.76078 10.5599 8.70078 12.0398 8.70078 13.5198C7.71079 13.1998 6.5508 13.2898 5.68082 13.8898C5.05082 14.2998 4.57083 14.9298 4.32083 15.6398C4.11084 16.1498 4.17083 16.7098 4.18083 17.2498C4.42083 18.8898 6.00081 20.2697 7.68079 20.1197C8.80078 20.1097 9.87076 19.4598 10.4508 18.5098C10.6408 18.1798 10.8507 17.8398 10.8607 17.4498C10.9607 15.6598 10.9207 13.8798 10.9307 12.0898C10.9407 8.0599 10.9207 4.03995 10.9507 0.0199997Z" fill="black"/>
</svg>
