<svg width="90" height="78" viewBox="0 0 90 78" fill="none" xmlns="http://www.w3.org/2000/svg">
<rect width="90" height="78" rx="8" fill="white"/>
<path d="M27.0967 57C23.6162 57 20.4521 56.1562 17.5781 54.4424C14.7305 52.7549 12.4365 50.4609 10.749 47.6133C9.03516 44.7393 8.19141 41.5752 8.19141 38.0947C8.19141 34.6143 9.03516 31.4502 10.749 28.5762C12.4365 25.7285 14.7305 23.4346 17.5781 21.7471C20.4521 20.0332 23.6162 19.1895 27.0967 19.1895H34.7695V22.7227H27.0967C24.2754 22.7227 21.6914 23.4346 19.3711 24.8057C17.0508 26.1768 15.2051 28.0488 13.8076 30.3691C12.4365 32.6895 11.7246 35.2734 11.7246 38.0947C11.7246 40.916 12.4365 43.5 13.8076 45.8203C15.2051 48.1406 17.0508 50.0127 19.3711 51.3838C21.6914 52.7812 24.2754 53.4668 27.0967 53.4668H34.7695V57H27.0967ZM61.585 45.9521H58.0518L46.5293 19.1895H50.0625L59.8184 41.8389L69.5742 19.1895H73.1074V57H69.5742V27.416L61.585 45.9521Z" fill="#001F25"/>
</svg>
